# xmcd CD database file
#
# Track frame offsets:
#	150
#	23870
#	48297
#	71155
#	92967
#	113357
#	138052
#	162265
#	183947
#	199947
#	226640
#	248290
#
# Disc length: 3564 seconds
#
# Revision: 0
# Processed by: cddbd v1.5.1PL0 Copyright (c) Steve Scherf et al.
# Submitted via: CDex 1.50beta10
#
DISCID=8d0dea0c
DTITLE=Hip Lankchan - I Am On My Way
DYEAR=1996
DGENRE=Blues
TTITLE0=You Left Me With A Broken Heart
TTITLE1=I'm On My Way
TTITLE2=Last Night
TTITLE3=All Your Love
TTITLE4=I Don't Want No Woman
TTITLE5=Black Nights
TTITLE6=Reconsider Baby
TTITLE7=Somebody Loan Me A Dime
TTITLE8=Same Old Blues
TTITLE9=Why I Sing The Blues
TTITLE10=My Man
TTITLE11=Johnny B. Goode
EXTD=YEAR: 1996
EXTT0=
EXTT1=
EXTT2=
EXTT3=
EXTT4=
EXTT5=
EXTT6=
EXTT7=
EXTT8=
EXTT9=
EXTT10=
EXTT11=
PLAYORDER=
